# xmcd
#
# Track frame offsets: 
#        150
#        15396
#        37973
#        59647
#        75837
#        93613
#        118723
#        137886
#        152918
#        165724
#        181039
#        205739
#        220128
#        239428
#        253435
#        273229
#        289644
#        303933
#
# Disc length: 4381 seconds
#
# Revision: 0
# Processed by: cddbd v1.5.1PL2 Copyright (c) Steve Scherf et al.
# Submitted via: ExactAudioCopy v0.95b4
#
DISCID=f8111b12
DTITLE=Various Artist - Αφιέρωμα στη Βόρειο Ήπειρο
DYEAR=1900
DGENRE=Ethnic
TTITLE0=Βόρειος Ήπειρος - Πατρίδα Ευεργετών
TTITLE1=Αρχηγός Ο Σπύρο Μήλιος
TTITLE2=’γιε Κοσμά κάνε το θάυμα
TTITLE3=Φωνάζω Ελλάδα δεν μ' ακούς
TTITLE4=Τα κορίτσια από τη Γράβα
TTITLE5=Ν' αγνάντευα το Δέλβινο
TTITLE6=Το λένε στη Βόρειο Ήπειρο
TTITLE7=Ηπειρώτισσα Γοργόνα
TTITLE8=Πέρασα από τη Χειμάρα
TTITLE9=Αγαπώ μια κοπελιά
TTITLE10=Στης Δερόπολης τον κάμπο
TTITLE11=Μέσα στη Βόρειο Ήπειρο
TTITLE12=Δέλβινο και Τσαμουριά
TTITLE13=Πέρασα από την Τσιούκα
TTITLE14=Δεροπολίτισσα
TTITLE15=Για τους λεβέντες από τ' Αλήκου
TTITLE16=Τι έχουν του Βούρκου τα χωριά
TTITLE17=Για τν Ηλία Ντάλλα
EXTD=
EXTT0=
EXTT1=
EXTT2=
EXTT3=
EXTT4=
EXTT5=
EXTT6=
EXTT7=
EXTT8=
EXTT9=
EXTT10=
EXTT11=
EXTT12=
EXTT13=
EXTT14=
EXTT15=
EXTT16=
EXTT17=
PLAYORDER=
